#Comment line ignore any data following # character 
#Hierarchical Translation and Rotation (.htr) file 
[Header]	
#Header keywords are followed by a single value 
FileType HTR		#Single word string
DataType HTRS		#Translation followed by rotation and scale data
FileVersion 1		#integer
NumSegments 84		#integer
NumFrames 2		#integer
DataFrameRate 30		#integer, data frame rate in this file
EulerRotationOrder ZYX
CalibrationUnits mm
RotationUnits Degrees
GlobalAxisofGravity Y
BoneLengthAxis Y
ScaleFactor 1.00
[SegmentNames&Hierarchy]
#CHILD	PARENT
MASTER GLOBAL
root MASTER
chest root
L_mid_tent01 root
R_mid_tent01 root
spine01 root
Bip01_Neck chest
L_humerus chest
R_humerus chest
weapon_bone chest
Bip01_Head Bip01_Neck
eye_left_bone Bip01_Head
eye_right_bone Bip01_Head
L_forearm L_humerus
L_front_hand L_forearm
L_weapon_bone L_forearm
L_front_hand01_01 L_front_hand
L_front_hand02_01 L_front_hand
L_front_hand03_01 L_front_hand
L_front_hand01_02 L_front_hand01_01
L_front_hand02_02 L_front_hand02_01
L_front_hand03_02 L_front_hand03_01
R_forearm R_humerus
R_front_hand R_forearm
R_weapon_bone R_forearm
R_front_hand01_01 R_front_hand
R_front_hand02_01 R_front_hand
R_front_hand03_01 R_front_hand
R_front_hand01_02 R_front_hand01_01
R_front_hand02_02 R_front_hand02_01
R_front_hand03_02 R_front_hand03_01
null_rope01_connect L_mid_tent01
Rope1_Seg01 null_rope01_connect
Rope1_Seg02 Rope1_Seg01
Rope1_Seg03 Rope1_Seg02
Rope1_Seg04 Rope1_Seg03
Rope1_Seg05 Rope1_Seg04
Rope1_Seg06 Rope1_Seg05
Rope1_Seg07 Rope1_Seg06
Rope1_Seg09 Rope1_Seg07
L_mid_hand01 Rope1_Seg09
L_mid_hand02 Rope1_Seg09
L_mid_hand03 Rope1_Seg09
null_rope02_connect R_mid_tent01
Rope2_Seg01 null_rope02_connect
Rope2_Seg02 Rope2_Seg01
Rope2_Seg03 Rope2_Seg02
Rope2_Seg04 Rope2_Seg03
Rope2_Seg05 Rope2_Seg04
Rope2_Seg06 Rope2_Seg05
Rope2_Seg07 Rope2_Seg06
Rope2_Seg09 Rope2_Seg07
R_mid_hand01 Rope2_Seg09
R_mid_hand02 Rope2_Seg09
R_mid_hand03 Rope2_Seg09
spine02 spine01
spine03 spine02
pelvis spine03
null_rope03_connect pelvis
null_rope04_connect pelvis
Rope3_Seg01 null_rope03_connect
Rope3_Seg02 Rope3_Seg01
Rope3_Seg03 Rope3_Seg02
Rope3_Seg04 Rope3_Seg03
Rope3_Seg05 Rope3_Seg04
Rope3_Seg06 Rope3_Seg05
Rope3_Seg07 Rope3_Seg06
Rope3_Seg08 Rope3_Seg07
Rope3_Seg09 Rope3_Seg08
R_rear_hand01 Rope3_Seg09
R_rear_hand02 Rope3_Seg09
R_rear_hand03 Rope3_Seg09
Rope4_Seg01 null_rope04_connect
Rope4_Seg02 Rope4_Seg01
Rope4_Seg03 Rope4_Seg02
Rope4_Seg04 Rope4_Seg03
Rope4_Seg05 Rope4_Seg04
Rope4_Seg06 Rope4_Seg05
Rope4_Seg07 Rope4_Seg06
Rope4_Seg08 Rope4_Seg07
Rope4_Seg09 Rope4_Seg08
L_rear_hand01 Rope4_Seg09
L_rear_hand02 Rope4_Seg09
L_rear_hand03 Rope4_Seg09
[BasePosition]
#SegmentName Tx, Ty, Tz, Rx, Ry, Rz, BoneLength
MASTER 0.000000 0.000000 0.000000 -90.000000 0.000000 0.000000 10.000000 
root 0.000000 0.000000 0.000000 0.000000 0.000000 0.000000 10.000000 
chest 0.000000 0.000000 0.000000 0.000000 0.000000 0.000000 10.000000 
L_mid_tent01 0.000000 0.000000 0.000000 0.000000 0.000000 0.000000 10.000000 
R_mid_tent01 0.000000 0.000000 0.000000 0.000000 0.000000 0.000000 10.000000 
spine01 0.000000 0.000000 0.000000 0.000000 0.000000 0.000000 10.000000 
Bip01_Neck 0.000000 0.000000 0.000000 0.000000 0.000000 0.000000 10.000000 
L_humerus 0.000000 0.000000 0.000000 0.000000 0.000000 0.000000 10.000000 
R_humerus 0.000000 0.000000 0.000000 0.000000 0.000000 0.000000 10.000000 
weapon_bone 0.000000 0.000000 0.000000 0.000000 0.000000 0.000000 10.000000 
Bip01_Head 0.000000 0.000000 0.000000 0.000000 0.000000 0.000000 10.000000 
eye_left_bone 0.000000 0.000000 0.000000 0.000000 0.000000 0.000000 10.000000 
eye_right_bone 0.000000 0.000000 0.000000 0.000000 0.000000 0.000000 10.000000 
L_forearm 0.000000 0.000000 0.000000 0.000000 0.000000 0.000000 10.000000 
L_front_hand 0.000000 0.000000 0.000000 0.000000 0.000000 0.000000 10.000000 
L_weapon_bone 0.000000 0.000000 0.000000 0.000000 0.000000 0.000000 10.000000 
L_front_hand01_01 0.000000 0.000000 0.000000 0.000000 0.000000 0.000000 10.000000 
L_front_hand02_01 0.000000 0.000000 0.000000 0.000000 0.000000 0.000000 10.000000 
L_front_hand03_01 0.000000 0.000000 0.000000 0.000000 0.000000 0.000000 10.000000 
L_front_hand01_02 0.000000 0.000000 0.000000 0.000000 0.000000 0.000000 10.000000 
L_front_hand02_02 0.000000 0.000000 0.000000 0.000000 0.000000 0.000000 10.000000 
L_front_hand03_02 0.000000 0.000000 0.000000 0.000000 0.000000 0.000000 10.000000 
R_forearm 0.000000 0.000000 0.000000 0.000000 0.000000 0.000000 10.000000 
R_front_hand 0.000000 0.000000 0.000000 0.000000 0.000000 0.000000 10.000000 
R_weapon_bone 0.000000 0.000000 0.000000 0.000000 0.000000 0.000000 10.000000 
R_front_hand01_01 0.000000 0.000000 0.000000 0.000000 0.000000 0.000000 10.000000 
R_front_hand02_01 0.000000 0.000000 0.000000 0.000000 0.000000 0.000000 10.000000 
R_front_hand03_01 0.000000 0.000000 0.000000 0.000000 0.000000 0.000000 10.000000 
R_front_hand01_02 0.000000 0.000000 0.000000 0.000000 0.000000 0.000000 10.000000 
R_front_hand02_02 0.000000 0.000000 0.000000 0.000000 0.000000 0.000000 10.000000 
R_front_hand03_02 0.000000 0.000000 0.000000 0.000000 0.000000 0.000000 10.000000 
null_rope01_connect 0.000000 0.000000 0.000000 0.000000 0.000000 0.000000 10.000000 
Rope1_Seg01 0.000000 0.000000 0.000000 0.000000 0.000000 0.000000 10.000000 
Rope1_Seg02 0.000000 0.000000 0.000000 0.000000 0.000000 0.000000 10.000000 
Rope1_Seg03 0.000000 0.000000 0.000000 0.000000 0.000000 0.000000 10.000000 
Rope1_Seg04 0.000000 0.000000 0.000000 0.000000 0.000000 0.000000 10.000000 
Rope1_Seg05 0.000000 0.000000 0.000000 0.000000 0.000000 0.000000 10.000000 
Rope1_Seg06 0.000000 0.000000 0.000000 0.000000 0.000000 0.000000 10.000000 
Rope1_Seg07 0.000000 0.000000 0.000000 0.000000 0.000000 0.000000 10.000000 
Rope1_Seg09 0.000000 0.000000 0.000000 0.000000 0.000000 0.000000 10.000000 
L_mid_hand01 0.000000 0.000000 0.000000 0.000000 0.000000 0.000000 10.000000 
L_mid_hand02 0.000000 0.000000 0.000000 0.000000 0.000000 0.000000 10.000000 
L_mid_hand03 0.000000 0.000000 0.000000 0.000000 0.000000 0.000000 10.000000 
null_rope02_connect 0.000000 0.000000 0.000000 0.000000 0.000000 0.000000 10.000000 
Rope2_Seg01 0.000000 0.000000 0.000000 0.000000 0.000000 0.000000 10.000000 
Rope2_Seg02 0.000000 0.000000 0.000000 0.000000 0.000000 0.000000 10.000000 
Rope2_Seg03 0.000000 0.000000 0.000000 0.000000 0.000000 0.000000 10.000000 
Rope2_Seg04 0.000000 0.000000 0.000000 0.000000 0.000000 0.000000 10.000000 
Rope2_Seg05 0.000000 0.000000 0.000000 0.000000 0.000000 0.000000 10.000000 
Rope2_Seg06 0.000000 0.000000 0.000000 0.000000 0.000000 0.000000 10.000000 
Rope2_Seg07 0.000000 0.000000 0.000000 0.000000 0.000000 0.000000 10.000000 
Rope2_Seg09 0.000000 0.000000 0.000000 0.000000 0.000000 0.000000 10.000000 
R_mid_hand01 0.000000 0.000000 0.000000 0.000000 0.000000 0.000000 10.000000 
R_mid_hand02 0.000000 0.000000 0.000000 0.000000 0.000000 0.000000 10.000000 
R_mid_hand03 0.000000 0.000000 0.000000 0.000000 0.000000 0.000000 10.000000 
spine02 0.000000 0.000000 0.000000 0.000000 0.000000 0.000000 10.000000 
spine03 0.000000 0.000000 0.000000 0.000000 0.000000 0.000000 10.000000 
pelvis 0.000000 0.000000 0.000000 0.000000 0.000000 0.000000 10.000000 
null_rope03_connect 0.000000 0.000000 0.000000 0.000000 0.000000 0.000000 10.000000 
null_rope04_connect 0.000000 0.000000 0.000000 0.000000 0.000000 0.000000 10.000000 
Rope3_Seg01 0.000000 0.000000 0.000000 0.000000 0.000000 0.000000 10.000000 
Rope3_Seg02 0.000000 0.000000 0.000000 0.000000 0.000000 0.000000 10.000000 
Rope3_Seg03 0.000000 0.000000 0.000000 0.000000 0.000000 0.000000 10.000000 
Rope3_Seg04 0.000000 0.000000 0.000000 0.000000 0.000000 0.000000 10.000000 
Rope3_Seg05 0.000000 0.000000 0.000000 0.000000 0.000000 0.000000 10.000000 
Rope3_Seg06 0.000000 0.000000 0.000000 0.000000 0.000000 0.000000 10.000000 
Rope3_Seg07 0.000000 0.000000 0.000000 0.000000 0.000000 0.000000 10.000000 
Rope3_Seg08 0.000000 0.000000 0.000000 0.000000 0.000000 0.000000 10.000000 
Rope3_Seg09 0.000000 0.000000 0.000000 0.000000 0.000000 0.000000 10.000000 
R_rear_hand01 0.000000 0.000000 0.000000 0.000000 0.000000 0.000000 10.000000 
R_rear_hand02 0.000000 0.000000 0.000000 0.000000 0.000000 0.000000 10.000000 
R_rear_hand03 0.000000 0.000000 0.000000 0.000000 0.000000 0.000000 10.000000 
Rope4_Seg01 0.000000 0.000000 0.000000 0.000000 0.000000 0.000000 10.000000 
Rope4_Seg02 0.000000 0.000000 0.000000 0.000000 0.000000 0.000000 10.000000 
Rope4_Seg03 0.000000 0.000000 0.000000 0.000000 0.000000 0.000000 10.000000 
Rope4_Seg04 0.000000 0.000000 0.000000 0.000000 0.000000 0.000000 10.000000 
Rope4_Seg05 0.000000 0.000000 0.000000 0.000000 0.000000 0.000000 10.000000 
Rope4_Seg06 0.000000 0.000000 0.000000 0.000000 0.000000 0.000000 10.000000 
Rope4_Seg07 0.000000 0.000000 0.000000 0.000000 0.000000 0.000000 10.000000 
Rope4_Seg08 0.000000 0.000000 0.000000 0.000000 0.000000 0.000000 10.000000 
Rope4_Seg09 0.000000 0.000000 0.000000 0.000000 0.000000 0.000000 10.000000 
L_rear_hand01 0.000000 0.000000 0.000000 0.000000 0.000000 0.000000 10.000000 
L_rear_hand02 0.000000 0.000000 0.000000 0.000000 0.000000 0.000000 10.000000 
L_rear_hand03 0.000000 0.000000 0.000000 0.000000 0.000000 0.000000 10.000000 
#Beginning of Data. Separated by tabs
#Fr	Tx	Ty	Tz	Rx	Ry	Rz	SF
[MASTER]
12 0.000000 0.000000 0.000000 0.001660 0.001660 0.001660 0.000000
13 0.000000 0.000000 0.000000 0.001660 0.001660 0.001660 0.000000
[root]
12 -7.219340 -76.914291 1458.567627 -108.467644 22.252750 -90.148972 1460.611938
13 -2.878593 -78.056290 1449.547363 -108.454842 22.092190 -90.090530 1451.650391
[chest]
12 -86.836617 -33.005978 -30.127249 2.459188 -8.965706 -179.261642 97.660858
13 -86.836617 -33.005978 -30.127249 2.881037 -9.048347 -179.078308 97.660858
[L_mid_tent01]
12 27.299522 22.177580 -249.918289 -9.190136 14.338619 67.538071 252.381180
13 27.299522 22.177580 -249.918289 -9.171584 15.121035 67.516525 252.381180
[R_mid_tent01]
12 23.228794 24.509907 226.238495 -176.089722 -13.938612 65.774109 228.744751
13 23.228794 24.509907 226.238495 -176.082428 -14.371975 65.743507 228.744751
[spine01]
12 -0.361383 -0.195265 0.000000 -0.000001 -0.000007 22.052340 0.410763
13 -0.361383 -0.195265 0.000000 -0.000001 -0.000007 22.052340 0.410763
[Bip01_Neck]
12 165.484543 71.581718 0.000119 175.896118 1.177290 24.871183 180.302734
13 165.484543 71.581718 0.000119 175.896118 1.177290 24.871181 180.302734
[L_humerus]
12 -13.983130 -135.272980 -120.471481 -168.517593 36.033752 -113.483017 181.680161
13 -13.983130 -135.272980 -120.471481 -168.517593 36.033756 -113.483017 181.680161
[R_humerus]
12 -13.983309 -135.273102 125.287651 -179.620148 -19.552538 -121.963249 184.909012
13 -13.983309 -135.273102 125.287651 -179.588654 -28.895105 -122.030495 184.909012
[weapon_bone]
12 235.964890 -300.705902 0.000000 0.000000 -89.951546 -128.212341 382.234833
13 235.964890 -300.705902 0.000000 0.000000 -89.951546 -128.212341 382.234833
[Bip01_Head]
12 189.519928 179.130249 22.124876 -22.089312 5.585369 14.111505 261.715424
13 189.519928 179.130249 22.124878 -22.333845 5.621503 14.212313 261.715424
[eye_left_bone]
12 -24.626970 125.451866 -64.772606 0.000000 -90.000000 -99.840431 143.318359
13 -24.626970 125.451866 -64.772606 0.000000 -90.000000 -99.840431 143.318359
[eye_right_bone]
12 -24.626970 125.451866 64.327362 0.000000 -89.965736 80.156380 143.117676
13 -24.626970 125.451866 64.327362 0.000000 -89.980217 80.156380 143.117676
[L_forearm]
12 322.776093 0.000000 -0.000119 0.000017 0.002347 -89.149834 322.776093
13 322.776093 0.000000 -0.000119 0.000017 0.002347 -89.149834 322.776093
[L_front_hand]
12 241.149185 -0.042021 -3.300071 -47.595905 -2.244562 -0.019164 241.171753
13 241.149185 -0.042021 -3.300071 -52.008106 -2.242769 -0.021223 241.171753
[L_weapon_bone]
12 156.183838 0.000000 0.000000 0.000014 0.000007 0.000001 156.183838
13 156.183838 0.000000 0.000000 0.000014 0.000007 0.000001 156.183838
[L_front_hand01_01]
12 86.095154 20.947098 -0.655860 -0.366594 -0.477154 75.385574 88.609184
13 86.095154 20.947098 -0.655860 -0.366594 -0.477154 75.385574 88.609184
[L_front_hand02_01]
12 86.935165 -11.437475 24.513514 154.399796 -59.883835 -61.369587 91.046425
13 86.935165 -11.437475 24.513514 154.399796 -59.883835 -61.369587 91.046425
[L_front_hand03_01]
12 86.637497 -14.123976 -20.424902 -153.913849 58.118122 -62.702866 90.126129
13 86.637497 -14.123976 -20.424902 -153.913849 58.118122 -62.702866 90.126129
[L_front_hand01_02]
12 71.020905 -0.000179 0.000030 0.000334 -0.002323 -106.379684 71.020905
13 71.020905 -0.000179 0.000030 0.000334 -0.002323 -106.379684 71.020905
[L_front_hand02_02]
12 71.020927 -0.000119 0.000060 0.000334 -0.002323 -106.379684 71.020927
13 71.020927 -0.000119 0.000060 0.000334 -0.002323 -106.379684 71.020927
[L_front_hand03_02]
12 71.020905 -0.000060 0.000060 0.000334 -0.002323 -106.379684 71.020905
13 71.020905 -0.000060 0.000060 0.000334 -0.002323 -106.379684 71.020905
[R_forearm]
12 322.776428 -0.000060 0.000030 0.213197 0.007525 -93.425262 322.776428
13 322.776428 -0.000060 0.000030 0.213197 0.007525 -93.425262 322.776428
[R_front_hand]
12 238.847015 -0.006795 2.210259 -0.270529 1.703932 2.322530 238.857239
13 238.847015 -0.006795 2.210259 -0.270529 1.703932 2.322531 238.857239
[R_weapon_bone]
12 155.664093 0.002503 -0.000030 0.003487 0.001180 -90.988930 155.664078
13 155.664093 0.002503 -0.000030 0.003487 0.001180 -90.988930 155.664078
[R_front_hand01_01]
12 87.624611 14.231146 22.918642 -154.633484 -59.950619 61.746037 91.683487
13 87.624611 14.231146 22.918642 -154.633514 -59.950626 61.746063 91.683487
[R_front_hand02_01]
12 89.356956 14.367283 -19.491137 154.602661 58.302849 63.744389 92.579636
13 89.356956 14.367283 -19.491137 154.602661 58.302849 63.744381 92.579636
[R_front_hand03_01]
12 87.286232 -22.307278 -0.143439 0.162155 -0.423168 -75.767906 90.091743
13 87.286232 -22.307278 -0.143439 0.162155 -0.423168 -75.767921 90.091743
[R_front_hand01_02]
12 71.020905 0.000060 0.000119 0.002323 -0.000334 106.381714 71.020905
13 71.020905 0.000060 0.000119 0.002323 -0.000334 106.381714 71.020905
[R_front_hand02_02]
12 71.020844 -0.000030 -0.000119 0.002323 -0.000334 106.381714 71.020836
13 71.020844 -0.000030 -0.000119 0.002323 -0.000334 106.381714 71.020836
[R_front_hand03_02]
12 71.020905 0.000000 0.000030 0.002323 -0.000334 106.381714 71.020905
13 71.020905 0.000000 0.000030 0.002323 -0.000334 106.381714 71.020905
[null_rope01_connect]
12 328.732483 0.000000 -0.000238 152.556778 -54.782310 -154.069229 328.732483
13 328.732483 0.000000 -0.000238 153.254456 -54.085709 -154.581406 328.732483
[Rope1_Seg01]
12 0.000000 0.000000 0.000000 145.465286 51.289669 -179.769531 0.000000
13 0.000000 0.000000 0.000000 145.009109 53.617630 177.662628 0.000000
[Rope1_Seg02]
12 139.999863 -0.000179 0.000000 6.838440 -0.659898 -10.297551 139.999863
13 139.999863 -0.000179 0.000000 6.156581 -0.387841 -10.205773 139.999863
[Rope1_Seg03]
12 139.999924 0.000060 -0.000060 13.940012 -2.697779 -13.820772 139.999924
13 139.999924 0.000060 -0.000060 12.644277 -2.139041 -13.728747 139.999924
[Rope1_Seg04]
12 139.999924 -0.000060 -0.000119 32.439003 -12.009136 -20.001484 139.999924
13 139.999924 -0.000060 -0.000119 31.040300 -10.482379 -20.244350 139.999924
[Rope1_Seg05]
12 139.999832 0.000119 -0.000060 10.009867 -2.977704 -7.156522 139.999832
13 139.999832 0.000119 -0.000060 10.443661 -2.868722 -7.413930 139.999832
[Rope1_Seg06]
12 139.999954 0.000119 -0.000060 -10.258432 10.007857 -3.635627 139.999954
13 139.999954 0.000119 -0.000060 -10.213822 9.356946 -2.819283 139.999954
[Rope1_Seg07]
12 139.999985 0.000060 0.000000 -3.294538 3.357856 -1.693789 139.999985
13 139.999985 0.000060 0.000000 -3.051969 3.084552 -1.486147 139.999985
[Rope1_Seg09]
12 121.602913 0.000119 -0.000089 -89.793175 -1.359789 0.847147 121.602913
13 121.602913 0.000119 -0.000089 -89.793175 -1.359789 0.847147 121.602913
[L_mid_hand01]
12 103.859421 1.038730 8.195221 106.855484 -31.239275 -9.461397 104.187431
13 103.859421 1.038730 8.195221 106.855484 -31.239275 -9.461397 104.187431
[L_mid_hand02]
12 105.572853 -4.139662 -10.864139 -142.331345 25.752670 -28.774628 106.211075
13 105.572853 -4.139662 -10.864139 -142.331345 25.752670 -28.774628 106.211075
[L_mid_hand03]
12 104.641464 17.579376 -3.913581 -16.122810 9.734291 34.223598 106.179977
13 104.641464 17.579376 -3.913581 -16.122810 9.734291 34.223598 106.179977
[null_rope02_connect]
12 328.732849 0.000179 -0.000119 -47.878902 85.480484 130.967178 328.732849
13 328.732849 0.000179 -0.000119 -52.624882 85.711479 126.070839 328.732849
[Rope2_Seg01]
12 0.000076 0.000110 0.000153 54.992104 76.876686 169.812027 0.000203
13 0.000076 0.000110 0.000153 55.647755 77.005203 170.493835 0.000203
[Rope2_Seg02]
12 139.999741 -0.000060 -0.000119 -1.602329 12.811944 4.476759 139.999756
13 139.999741 -0.000060 -0.000119 -1.678773 13.037560 4.650272 139.999756
[Rope2_Seg03]
12 140.000107 0.000030 0.000000 -5.709247 19.007845 7.749112 140.000107
13 140.000107 0.000030 0.000000 -5.877505 19.080788 7.985515 140.000107
[Rope2_Seg04]
12 139.999802 0.000000 -0.000060 -9.845884 15.854841 8.643105 139.999802
13 139.999802 0.000000 -0.000060 -9.966850 15.726839 8.817976 139.999802
[Rope2_Seg05]
12 139.999985 -0.000060 0.000119 0.815192 -0.288309 -0.954948 139.999985
13 139.999985 -0.000060 0.000119 0.736332 -0.127583 -0.925684 139.999985
[Rope2_Seg06]
12 139.999893 -0.000030 -0.000119 -0.390751 0.647550 0.137933 139.999893
13 139.999893 -0.000030 -0.000119 -0.348978 0.630056 0.093713 139.999893
[Rope2_Seg07]
12 139.999893 0.000060 -0.000060 -0.725002 0.843358 0.455304 139.999893
13 139.999893 0.000060 -0.000060 -0.737764 0.861240 0.459053 139.999893
[Rope2_Seg09]
12 121.338966 0.000089 -0.000060 33.793236 -1.359788 -0.847141 121.338966
13 121.338966 0.000089 -0.000060 33.793236 -1.359788 -0.847141 121.338966
[R_mid_hand01]
12 104.680779 11.144459 -10.335981 -41.523792 25.424656 28.595957 105.778534
13 104.680779 11.144459 -10.335981 -41.523792 25.424656 28.595957 105.778534
[R_mid_hand02]
12 104.070427 2.443552 8.231699 72.847389 -32.746803 10.013901 104.424065
13 104.070427 2.443552 8.231699 72.847389 -32.746803 10.013901 104.424065
[R_mid_hand03]
12 106.028137 -11.221827 -5.996406 -167.901306 10.259192 -37.009720 106.788818
13 106.028137 -11.221827 -5.996406 -167.901306 10.259192 -37.009720 106.788818
[spine02]
12 129.756927 0.001550 0.000119 -0.245322 -4.052059 -4.355546 129.756927
13 129.756927 0.001550 0.000119 -0.245322 -4.052060 -4.355547 129.756927
[spine03]
12 78.613846 0.087372 -4.898873 0.207412 -2.089717 -0.432471 78.766380
13 78.613846 0.087372 -4.898873 0.207412 -2.089717 -0.432471 78.766380
[pelvis]
12 169.435242 0.051022 0.000000 -0.010007 -0.191417 -1.897554 169.435257
13 169.435242 0.051022 0.000000 -0.010007 -0.191417 -1.897554 169.435257
[null_rope03_connect]
12 -1.257226 -2.466202 137.391083 137.729156 -72.463127 -86.354446 137.418976
13 -1.257226 -2.466202 137.391083 137.744019 -72.433655 -86.199997 137.418976
[null_rope04_connect]
12 -1.259640 -2.480268 -137.844437 137.729156 -72.463127 -86.354446 137.872513
13 -1.259640 -2.480268 -137.844437 137.744019 -72.433655 -86.199997 137.872513
[Rope3_Seg01]
12 0.000000 0.000000 0.000000 162.287521 67.192429 -135.071472 0.000000
13 0.000000 0.000000 0.000000 165.195511 66.622665 -132.718857 0.000000
[Rope3_Seg02]
12 139.999924 -0.000119 0.000060 9.924947 13.749847 -3.925398 139.999924
13 139.999924 -0.000119 0.000060 9.787664 13.614922 -4.272810 139.999924
[Rope3_Seg03]
12 139.999924 -0.000119 0.000119 16.607244 20.385105 -5.502931 139.999924
13 139.999924 -0.000119 0.000119 16.237803 20.343557 -5.643666 139.999924
[Rope3_Seg04]
12 139.999924 0.000119 0.000000 8.427506 7.330852 -9.572991 139.999924
13 139.999924 0.000119 0.000000 7.026159 5.556819 -9.302190 139.999924
[Rope3_Seg05]
12 139.999924 -0.000238 0.000060 -8.029631 -22.806128 -3.389513 139.999924
13 139.999924 -0.000238 0.000060 -7.958163 -23.961737 -3.381123 139.999924
[Rope3_Seg06]
12 139.999893 -0.000119 -0.000060 -1.178165 -13.028481 -4.674033 139.999893
13 139.999893 -0.000119 -0.000060 -0.897173 -12.737079 -4.617289 139.999893
[Rope3_Seg07]
12 139.999771 0.000060 -0.000119 0.319208 -6.910326 -3.288165 139.999771
13 139.999771 0.000060 -0.000119 0.408364 -6.863441 -3.144609 139.999771
[Rope3_Seg08]
12 139.999985 -0.000060 0.000000 0.584631 -4.070224 -1.919565 139.999985
13 139.999985 -0.000060 0.000000 0.633545 -3.985860 -1.802009 139.999985
[Rope3_Seg09]
12 90.185997 -0.000179 -0.000060 89.793228 -1.359877 -0.847183 90.185997
13 90.185997 -0.000179 -0.000060 89.793228 -1.359877 -0.847183 90.185997
[R_rear_hand01]
12 103.366196 -6.073594 -10.757982 -161.551193 16.666374 -30.088671 104.101845
13 103.366196 -6.073594 -10.757982 -161.551193 16.666374 -30.088671 104.101845
[R_rear_hand02]
12 100.509819 12.039542 -7.992327 -34.280552 19.289745 28.875523 101.543350
13 100.509819 12.039542 -7.992327 -34.280552 19.289745 28.875523 101.543350
[R_rear_hand03]
12 101.539970 5.215704 5.435467 83.366440 -30.933914 7.284830 101.819031
13 101.539970 5.215704 5.435467 83.366440 -30.933914 7.284830 101.819031
[Rope4_Seg01]
12 0.000010 0.000038 -0.000114 -5.971666 71.713203 -170.154282 0.000121
13 0.000010 0.000038 -0.000114 -5.097220 72.247398 -169.234406 0.000121
[Rope4_Seg02]
12 139.999985 0.000060 0.000119 -0.215382 -5.104158 9.750928 139.999985
13 139.999985 0.000060 0.000119 -0.321948 -5.025400 9.616076 139.999985
[Rope4_Seg03]
12 139.999924 0.000000 -0.000238 -0.416656 -6.868021 12.651784 139.999924
13 139.999924 0.000000 -0.000238 -0.540813 -6.759177 12.428796 139.999924
[Rope4_Seg04]
12 139.999985 0.000000 0.000119 -0.511965 -8.327944 14.802512 139.999985
13 139.999985 0.000000 0.000119 -0.639312 -8.160153 14.444450 139.999985
[Rope4_Seg05]
12 139.999802 -0.000060 -0.000119 0.077077 2.479394 0.399078 139.999802
13 139.999802 -0.000060 -0.000119 0.084500 2.335893 0.423856 139.999802
[Rope4_Seg06]
12 139.999924 0.000000 0.000060 0.096831 6.072461 -4.838326 139.999924
13 139.999924 0.000000 0.000060 0.152166 5.640792 -4.453553 139.999924
[Rope4_Seg07]
12 139.999802 0.000000 0.000000 0.297707 2.843968 -1.161821 139.999802
13 139.999802 0.000000 0.000000 0.286151 2.595973 -0.981260 139.999802
[Rope4_Seg08]
12 139.999924 0.000000 0.000119 -1.284316 2.020351 -0.832262 139.999924
13 139.999924 0.000000 0.000119 -1.299225 1.848465 -0.711836 139.999924
[Rope4_Seg09]
12 90.185791 0.000060 0.000060 -135.617828 2.228885 0.850567 90.185791
13 90.185791 0.000060 0.000060 -135.617828 2.228885 0.850567 90.185791
[L_rear_hand01]
12 101.696655 -8.392275 -7.654577 -34.454281 -18.946800 151.655121 102.329041
13 101.696655 -8.392275 -7.654577 -34.454281 -18.946800 151.655121 102.329041
[L_rear_hand02]
12 102.726799 -1.568258 5.773216 83.407906 30.330435 172.796509 102.900848
13 102.726799 -1.568258 5.773216 83.407906 30.330435 172.796509 102.900848
[L_rear_hand03]
12 104.552910 9.721220 -10.420293 -161.379868 -16.473232 -150.512238 105.519653
13 104.552910 9.721220 -10.420293 -161.379868 -16.473232 -150.512238 105.519653
